<?xml version="1.0" encoding="utf-8"?>
<!-- Generator: Adobe Illustrator 27.0.1, SVG Export Plug-In . SVG Version: 6.00 Build 0)  -->
<svg version="1.1" id="Шар_1" xmlns="http://www.w3.org/2000/svg" xmlns:xlink="http://www.w3.org/1999/xlink" x="0px" y="0px"
	 viewBox="0 0 595.28 642.89" style="enable-background:new 0 0 595.28 642.89;" xml:space="preserve">
<style type="text/css">
	.st0{fill:#FFFFFF;stroke:#CECDCC;stroke-width:8.3944;stroke-miterlimit:10;}
	.st1{fill:none;stroke:#CECDCC;stroke-width:28.9989;stroke-miterlimit:10;}
	.st2{fill:none;stroke:#CECDCC;stroke-width:30;stroke-miterlimit:10;}
	.st3{fill:none;stroke:#CECDCC;stroke-width:30.5252;stroke-miterlimit:10;}
	.st4{fill:none;stroke:#CECDCC;stroke-width:15.2739;stroke-miterlimit:10;}
	.st5{fill:none;stroke:#CECDCC;stroke-width:3.8156;stroke-miterlimit:10;}
	.st6{fill:none;stroke:#CECDCC;stroke-width:15.4628;stroke-miterlimit:10;}
	.st7{fill:none;stroke:#CECDCC;stroke-width:4.5788;stroke-miterlimit:10;}
	.st8{fill:#CECDCC;}
</style>
<path class="st0" d="M453.19,228.53"/>
<line class="st1" x1="134.69" y1="345.04" x2="418.64" y2="345.85"/>
<line class="st1" x1="458.23" y1="230.96" x2="349.54" y2="230.96"/>
<line class="st1" x1="416.48" y1="288" x2="349.54" y2="288.81"/>
<path class="st1" d="M413.6,345.85c16.55,0.81,26.63-13.35,26.63-29.33c0-19.22-15.12-30.54-28.79-28.12"/>
<path class="st1" d="M350.98,288.91c-16.9,0.13-25.91-13.35-25.91-29.33s13.76-28.62,28.07-28.62"/>
<line class="st2" x1="237.98" y1="230.96" x2="307.8" y2="230.96"/>
<line class="st3" x1="191.91" y1="228.53" x2="191.91" y2="228.53"/>
<line class="st3" x1="312.97" y1="301" x2="312.97" y2="301"/>
<line class="st2" x1="186.87" y1="288.4" x2="306.36" y2="289.21"/>
<path class="st4" d="M302.06,239.85l-3.26-8.11l-3.26-8.11l6.48-0.03l6.48-0.03c-1.73,1.51-3.47,3.02-5.2,4.53
	C302.88,232.03,302.47,235.94,302.06,239.85"/>
<path class="st5" d="M306,245.93c0-1.62,1.44-4.85,2.52-7.69c1.1-2.89,2.15-5.11,4.32-8.09c2.22-3.05,5.3-6.98,9.36-11.33"/>
<line class="st3" x1="314.29" y1="301.75" x2="314.29" y2="301.75"/>
<path class="st6" d="M302.13,279.85l-3.26,8.31l-3.26,8.31l6.43,0.03l6.52,0.03c-1.73-1.55-3.47-3.09-5.2-4.64
	C302.95,287.87,302.54,283.86,302.13,279.85"/>
<path class="st7" d="M306.36,273.84c-0.03,1.3,0.36,2.84,0.72,4.05c0.72,2.43,1.92,5.32,3.6,8.9c0.99,2.1,9.76,14.02,12.24,15.37"/>
<g>
	<g>
		<path class="st8" d="M158.52,410.41h-15.91v11.31h17.79v7.26h-26.61v-42.93h25.68v7.26h-16.86v9.91h15.91V410.41z"/>
		<path class="st8" d="M195.31,419.31c0,3.88,0.12,7.11,0.25,9.67h-7.66l-0.41-4.53h-0.19c-1.26,2.04-4.22,5.23-9.78,5.23
			c-6,0-10.84-3.7-10.84-13.54v-18.26h8.82v16.81c0,4.83,1.53,7.82,5.28,7.82c2.86,0,4.63-1.99,5.34-3.77
			c0.25-0.62,0.38-1.39,0.38-2.23v-18.64h8.82V419.31z"/>
		<path class="st8" d="M203.41,408.01c0-4.38-0.08-7.41-0.25-10.13h7.59l0.32,5.83h0.23c1.56-4.47,5.26-6.53,8.42-6.53
			c0.83,0,1.28,0.03,1.96,0.18v8.32c-0.71-0.15-1.44-0.25-2.46-0.25c-3.63,0-6.12,2.11-6.8,5.39c-0.13,0.65-0.19,1.44-0.19,2.25
			v15.91h-8.82V408.01z"/>
		<path class="st8" d="M256.87,413.12c0,11.39-8.01,16.56-16.14,16.56c-8.89,0-15.77-6.01-15.77-16.02
			c0-10.11,6.64-16.48,16.31-16.48C250.63,397.18,256.87,403.71,256.87,413.12z M234.03,413.45c0,5.62,2.57,9.87,6.97,9.87
			c4.09,0,6.81-4.04,6.81-9.95c0-4.72-1.94-9.83-6.78-9.83C236.01,403.54,234.03,408.57,234.03,413.45z"/>
		<path class="st8" d="M263.13,422.22c2.47,1.55,6.07,2.78,9.87,2.78c5.65,0,8.97-2.96,8.97-7.31c0-3.98-2.32-6.33-8.09-8.49
			c-6.98-2.49-11.31-6.17-11.31-12.18c0-6.68,5.54-11.64,13.87-11.64c4.34,0,7.57,1.01,9.44,2.07l-1.54,4.54
			c-1.36-0.81-4.23-2.04-8.08-2.04c-5.88,0-8.09,3.49-8.09,6.42c0,3.98,2.6,5.95,8.51,8.24c7.26,2.86,10.91,6.35,10.91,12.64
			c0,6.58-4.83,12.38-14.97,12.38c-4.14,0-8.65-1.25-10.93-2.8L263.13,422.22z"/>
		<path class="st8" d="M296.99,398.18l6.71,18.21c0.72,2.04,1.47,4.45,1.97,6.29h0.16c0.55-1.81,1.23-4.17,1.96-6.41l6.07-18.08
			h5.92l-8.4,21.94c-3.98,10.59-6.71,15.98-10.51,19.32c-2.76,2.4-5.48,3.35-6.84,3.6l-1.39-4.68c1.4-0.44,3.22-1.32,4.89-2.74
			c1.5-1.22,3.37-3.39,4.67-6.24c0.28-0.59,0.43-1,0.43-1.35c0-0.32-0.09-0.76-0.39-1.44l-11.32-28.41H296.99z"/>
		<path class="st8" d="M324.07,423.27c1.68,1.05,4.62,2.19,7.4,2.19c4.08,0,5.96-2.01,5.96-4.59c0-2.69-1.62-4.11-5.7-5.64
			c-5.54-2.01-8.17-5.04-8.16-8.73c0-4.96,4.02-9.03,10.62-9.03c3.12,0,5.81,0.85,7.52,1.89l-1.39,4.07
			c-1.18-0.74-3.43-1.81-6.3-1.81c-3.29,0-5.08,1.91-5.08,4.23c0,2.55,1.8,3.69,5.83,5.25c5.29,1.98,8.04,4.66,8.05,9.25
			c0,5.46-4.23,9.28-11.48,9.28c-3.36,0-6.47-0.87-8.62-2.15L324.07,423.27z"/>
		<path class="st8" d="M356.69,389.31v8.87h8.02v4.24h-8.02v16.6c0,3.84,1.1,6,4.22,6c1.45,0,2.5-0.18,3.23-0.41l0.25,4.26
			c-1.08,0.43-2.82,0.77-4.99,0.77c-2.56,0-4.7-0.85-6.02-2.37c-1.54-1.7-2.17-4.42-2.17-8.03v-16.82h-4.75v-4.24h4.75v-7.42
			L356.69,389.31z"/>
		<path class="st8" d="M374.12,414.59c0.11,7.57,4.9,10.69,10.5,10.69c3.99,0,6.44-0.72,8.5-1.58l0.98,3.98
			c-1.95,0.9-5.36,1.96-10.24,1.96c-9.43,0-15.1-6.31-15.1-15.55c0-9.33,5.48-16.62,14.44-16.62c10.01,0,12.63,8.82,12.63,14.49
			c0,1.18-0.07,2.02-0.19,2.63H374.12z M390.45,410.56c0.06-3.53-1.44-9.07-7.7-9.07c-5.7,0-8.12,5.17-8.57,9.07H390.45z"/>
		<path class="st8" d="M402.79,406.49c0-3.21-0.1-5.77-0.25-8.32h4.85l0.29,4.96h0.16c1.71-2.93,4.57-5.66,9.69-5.66
			c4.16,0,7.34,2.54,8.65,6.17h0.13c0.98-1.75,2.19-3.08,3.46-4.01c1.86-1.4,3.86-2.17,6.75-2.17c4.1,0,10.13,2.65,10.13,13.36
			v18.14h-5.45v-17.42c0-5.97-2.19-9.5-6.66-9.5c-3.2,0-5.66,2.34-6.64,5.04c-0.27,0.81-0.46,1.81-0.46,2.81v19.07h-5.45v-18.48
			c0-4.91-2.16-8.43-6.38-8.43c-3.48,0-6.03,2.79-6.96,5.59c-0.27,0.82-0.42,1.8-0.42,2.76v18.57h-5.45V406.49z"/>
	</g>
</g>
</svg>
