<?xml version="1.0" encoding="utf-8"?>
<!-- Generator: Adobe Illustrator 27.0.1, SVG Export Plug-In . SVG Version: 6.00 Build 0)  -->
<svg version="1.1" id="Шар_1" xmlns="http://www.w3.org/2000/svg" xmlns:xlink="http://www.w3.org/1999/xlink" x="0px" y="0px"
	 viewBox="0 0 595.28 657.02" style="enable-background:new 0 0 595.28 657.02;" xml:space="preserve">
<style type="text/css">
	.st0{fill:#FFFFFF;stroke:#3E4F61;stroke-width:8.5546;stroke-miterlimit:10;}
	.st1{fill:none;stroke:#3E4F61;stroke-width:29.5524;stroke-miterlimit:10;}
	.st2{fill:none;stroke:#3E4F61;stroke-width:30;stroke-miterlimit:10;}
	.st3{fill:none;stroke:#3E4F61;stroke-width:31.1077;stroke-miterlimit:10;}
	.st4{fill:none;stroke:#3E4F61;stroke-width:31;stroke-miterlimit:10;}
	.st5{fill:none;stroke:#3E4F61;stroke-width:15.5654;stroke-miterlimit:10;}
	.st6{fill:none;stroke:#3E4F61;stroke-width:3.8885;stroke-miterlimit:10;}
	.st7{fill:none;stroke:#3E4F61;stroke-width:15.7579;stroke-miterlimit:10;}
	.st8{fill:none;stroke:#3E4F61;stroke-width:4.6662;stroke-miterlimit:10;}
	.st9{fill:#3E4F61;}
</style>
<path class="st0" d="M465.53,218.46"/>
<line class="st1" x1="139.57" y1="336.69" x2="430.17" y2="337.51"/>
<line class="st1" x1="470.69" y1="220.93" x2="359.46" y2="220.93"/>
<line class="st1" x1="427.96" y1="278.81" x2="359.46" y2="279.63"/>
<path class="st1" d="M425.02,337.51c16.94,0.82,27.26-13.55,27.26-29.76c0-19.5-15.47-30.99-29.47-28.53"/>
<path class="st1" d="M360.93,279.73c-17.3,0.13-26.52-13.55-26.52-29.76s14.08-29.04,28.73-29.04"/>
<line class="st2" x1="245.27" y1="220.93" x2="316.73" y2="220.93"/>
<line class="st3" x1="198.13" y1="218.46" x2="198.13" y2="218.46"/>
<line class="st3" x1="322.02" y1="292" x2="322.02" y2="292"/>
<line class="st4" x1="192.97" y1="279.22" x2="315.26" y2="280.04"/>
<path class="st5" d="M310.86,229.95l-3.34-8.23l-3.34-8.23l6.63-0.03l6.63-0.03c-1.78,1.53-3.55,3.06-5.33,4.6
	C311.69,222.02,311.28,225.98,310.86,229.95"/>
<path class="st6" d="M314.89,236.11c0-1.64,1.47-4.93,2.58-7.8c1.13-2.94,2.2-5.18,4.42-8.21c2.27-3.09,5.43-7.08,9.58-11.49"/>
<line class="st3" x1="323.37" y1="292.76" x2="323.37" y2="292.76"/>
<path class="st7" d="M310.93,270.54l-3.34,8.43l-3.34,8.43l6.59,0.03l6.67,0.03c-1.78-1.57-3.55-3.14-5.33-4.71
	C311.77,278.68,311.35,274.61,310.93,270.54"/>
<path class="st8" d="M315.26,264.44c-0.03,1.32,0.37,2.88,0.74,4.11c0.74,2.46,1.96,5.4,3.68,9.03c1.01,2.13,9.98,14.23,12.52,15.6"
	/>
<g>
	<g>
		<path class="st9" d="M165.24,394.98h-16.28v11.47h18.21v7.37h-27.23v-43.55h26.28v7.37h-17.26v10.05h16.28V394.98z"/>
		<path class="st9" d="M202.89,404.01c0,3.94,0.12,7.21,0.26,9.81h-7.84l-0.42-4.6h-0.2c-1.28,2.07-4.32,5.31-10.01,5.31
			c-6.14,0-11.09-3.75-11.09-13.73v-18.53h9.02v17.05c0,4.9,1.57,7.94,5.4,7.94c2.92,0,4.74-2.02,5.46-3.82
			c0.26-0.62,0.39-1.41,0.39-2.26v-18.91h9.02V404.01z"/>
		<path class="st9" d="M211.18,392.55c0-4.45-0.09-7.52-0.26-10.28h7.77l0.33,5.91h0.23c1.6-4.54,5.38-6.62,8.61-6.62
			c0.85,0,1.31,0.03,2,0.18v8.44c-0.73-0.15-1.48-0.25-2.52-0.25c-3.71,0-6.27,2.14-6.95,5.46c-0.13,0.66-0.19,1.46-0.19,2.28v16.15
			h-9.02V392.55z"/>
		<path class="st9" d="M265.9,397.73c0,11.56-8.19,16.8-16.52,16.8c-9.1,0-16.14-6.1-16.14-16.25c0-10.26,6.8-16.72,16.7-16.72
			C259.51,381.56,265.9,388.19,265.9,397.73z M242.52,398.07c0,5.7,2.63,10.02,7.13,10.02c4.19,0,6.97-4.1,6.97-10.09
			c0-4.79-1.99-9.98-6.94-9.98C244.55,388.01,242.52,393.12,242.52,398.07z"/>
		<path class="st9" d="M272.31,406.97c2.53,1.57,6.22,2.82,10.1,2.82c5.78,0,9.18-3,9.18-7.42c0-4.04-2.37-6.42-8.28-8.62
			c-7.14-2.52-11.58-6.26-11.58-12.36c0-6.78,5.66-11.81,14.19-11.81c4.44,0,7.75,1.03,9.66,2.11l-1.58,4.61
			c-1.4-0.82-4.32-2.07-8.27-2.07c-6.01,0-8.28,3.54-8.28,6.51c0,4.04,2.66,6.04,8.7,8.36c7.42,2.9,11.16,6.44,11.16,12.83
			c0,6.68-4.95,12.56-15.32,12.56c-4.23,0-8.85-1.27-11.18-2.84L272.31,406.97z"/>
		<path class="st9" d="M306.96,382.57l6.86,18.47c0.74,2.07,1.51,4.52,2.02,6.38H316c0.56-1.84,1.25-4.23,2-6.5l6.21-18.35h6.06
			l-8.59,22.26c-4.07,10.75-6.87,16.22-10.76,19.6c-2.82,2.43-5.61,3.4-7,3.65l-1.42-4.75c1.44-0.45,3.29-1.34,5-2.78
			c1.54-1.24,3.45-3.44,4.78-6.33c0.29-0.6,0.44-1.02,0.44-1.37c0-0.32-0.09-0.77-0.4-1.46l-11.58-28.82H306.96z"/>
		<path class="st9" d="M334.67,408.04c1.72,1.07,4.73,2.23,7.57,2.23c4.17,0,6.1-2.04,6.1-4.65c0-2.73-1.66-4.17-5.84-5.72
			c-5.67-2.04-8.36-5.12-8.35-8.86c0-5.03,4.11-9.16,10.87-9.16c3.2,0,5.95,0.86,7.69,1.92l-1.42,4.13
			c-1.21-0.75-3.51-1.84-6.44-1.84c-3.37,0-5.2,1.93-5.2,4.29c0,2.59,1.85,3.74,5.96,5.33c5.41,2.01,8.23,4.72,8.24,9.39
			c0,5.54-4.33,9.42-11.75,9.42c-3.44,0-6.62-0.89-8.83-2.18L334.67,408.04z"/>
		<path class="st9" d="M368.06,373.57v9h8.21v4.3h-8.21v16.84c0,3.89,1.13,6.09,4.32,6.09c1.48,0,2.56-0.18,3.31-0.41l0.26,4.32
			c-1.11,0.43-2.88,0.78-5.1,0.78c-2.62,0-4.81-0.86-6.17-2.41c-1.57-1.72-2.22-4.48-2.22-8.15v-17.07h-4.86v-4.3h4.86v-7.53
			L368.06,373.57z"/>
		<path class="st9" d="M385.89,399.22c0.11,7.68,5.01,10.85,10.75,10.85c4.09,0,6.59-0.73,8.7-1.6l1,4.04
			c-2,0.91-5.49,1.99-10.48,1.99c-9.65,0-15.45-6.4-15.45-15.77c0-9.47,5.61-16.87,14.78-16.87c10.25,0,12.93,8.95,12.93,14.7
			c0,1.19-0.07,2.05-0.2,2.66H385.89z M402.61,395.14c0.06-3.58-1.47-9.2-7.88-9.2c-5.83,0-8.31,5.25-8.77,9.2H402.61z"/>
		<path class="st9" d="M415.24,391.01c0-3.26-0.11-5.85-0.26-8.44h4.96l0.3,5.03h0.16c1.75-2.97,4.68-5.74,9.91-5.74
			c4.26,0,7.51,2.58,8.85,6.26h0.13c1.01-1.78,2.24-3.13,3.54-4.07c1.9-1.42,3.95-2.2,6.91-2.2c4.19,0,10.37,2.69,10.37,13.56v18.4
			h-5.58v-17.67c0-6.05-2.24-9.64-6.82-9.64c-3.27,0-5.79,2.37-6.8,5.12c-0.27,0.82-0.47,1.84-0.47,2.85v19.35h-5.58v-18.75
			c0-4.98-2.21-8.56-6.53-8.56c-3.56,0-6.17,2.83-7.12,5.67c-0.28,0.83-0.43,1.83-0.43,2.8v18.84h-5.58V391.01z"/>
	</g>
</g>
</svg>
