<?xml version="1.0" encoding="utf-8"?>
<!-- Generator: Adobe Illustrator 27.0.1, SVG Export Plug-In . SVG Version: 6.00 Build 0)  -->
<svg version="1.1" id="Шар_1" xmlns="http://www.w3.org/2000/svg" xmlns:xlink="http://www.w3.org/1999/xlink" x="0px" y="0px"
	 viewBox="0 0 595.28 600.5" style="enable-background:new 0 0 595.28 600.5;" xml:space="preserve">
<style type="text/css">
	.st0{fill:#FFFFFF;stroke:#607B9F;stroke-width:8.5623;stroke-miterlimit:10;}
	.st1{fill:none;stroke:#607B9F;stroke-width:29.5788;stroke-miterlimit:10;}
	.st2{fill:none;stroke:#607B9F;stroke-width:30;stroke-miterlimit:10;}
	.st3{fill:none;stroke:#607B9F;stroke-width:31.1356;stroke-miterlimit:10;}
	.st4{fill:none;stroke:#607B9F;stroke-width:31;stroke-miterlimit:10;}
	.st5{fill:none;stroke:#607B9F;stroke-width:15.5793;stroke-miterlimit:10;}
	.st6{fill:none;stroke:#607B9F;stroke-width:3.8919;stroke-miterlimit:10;}
	.st7{fill:none;stroke:#607B9F;stroke-width:15.772;stroke-miterlimit:10;}
	.st8{fill:none;stroke:#607B9F;stroke-width:4.6703;stroke-miterlimit:10;}
	.st9{fill:#607B9F;}
</style>
<path class="st0" d="M449.65,208.05"/>
<line class="st1" x1="122.66" y1="326.12" x2="414.18" y2="326.94"/>
<line class="st1" x1="454.82" y1="210.51" x2="343.24" y2="210.51"/>
<line class="st1" x1="411.96" y1="268.31" x2="343.24" y2="269.13"/>
<path class="st1" d="M409.01,326.94c17,0.82,27.34-13.53,27.34-29.72c0-19.47-15.52-30.95-29.56-28.49"/>
<path class="st1" d="M344.72,269.24c-17.35,0.13-26.6-13.53-26.6-29.72s14.13-29,28.82-29"/>
<line class="st2" x1="228.7" y1="210.51" x2="300.38" y2="210.51"/>
<line class="st3" x1="181.41" y1="208.05" x2="181.41" y2="208.05"/>
<line class="st3" x1="305.69" y1="281.49" x2="305.69" y2="281.49"/>
<line class="st4" x1="176.24" y1="268.72" x2="298.9" y2="269.54"/>
<path class="st5" d="M294.49,219.52l-3.35-8.21l-3.35-8.21l6.65-0.03l6.65-0.03c-1.78,1.53-3.56,3.06-5.34,4.59
	C295.33,211.6,294.91,215.56,294.49,219.52"/>
<path class="st6" d="M298.53,225.68c0-1.64,1.48-4.92,2.59-7.79c1.13-2.93,2.21-5.18,4.43-8.2c2.28-3.09,5.45-7.07,9.61-11.48"/>
<line class="st3" x1="307.05" y1="282.24" x2="307.05" y2="282.24"/>
<path class="st7" d="M294.57,260.06l-3.35,8.42l-3.35,8.42l6.61,0.03l6.7,0.03c-1.78-1.57-3.56-3.14-5.34-4.7
	C295.4,268.18,294.99,264.12,294.57,260.06"/>
<path class="st8" d="M298.9,253.97c-0.03,1.32,0.37,2.88,0.74,4.1c0.74,2.46,1.97,5.39,3.69,9.02c1.01,2.13,10.02,14.21,12.56,15.58
	"/>
<g>
	<g>
		<path class="st9" d="M147.95,388.78h-16.34v11.46h18.27v7.36h-27.32v-43.5h26.37v7.36h-17.31v10.04h16.34V388.78z"/>
		<path class="st9" d="M185.72,397.79c0,3.94,0.12,7.2,0.26,9.8h-7.87l-0.42-4.59h-0.2c-1.29,2.07-4.34,5.3-10.04,5.3
			c-6.16,0-11.13-3.75-11.13-13.72v-18.51h9.05v17.03c0,4.9,1.58,7.93,5.42,7.93c2.93,0,4.75-2.02,5.48-3.82
			c0.26-0.62,0.4-1.41,0.4-2.26v-18.89h9.05V397.79z"/>
		<path class="st9" d="M194.03,386.35c0-4.44-0.09-7.51-0.26-10.27h7.79l0.33,5.9h0.24c1.6-4.53,5.4-6.61,8.64-6.61
			c0.85,0,1.32,0.03,2.01,0.18v8.43c-0.73-0.15-1.48-0.25-2.53-0.25c-3.72,0-6.29,2.14-6.98,5.46c-0.13,0.66-0.19,1.46-0.19,2.28
			v16.13h-9.05V386.35z"/>
		<path class="st9" d="M248.92,391.52c0,11.55-8.22,16.78-16.57,16.78c-9.13,0-16.19-6.1-16.19-16.24c0-10.25,6.82-16.7,16.75-16.7
			C242.52,375.37,248.92,381.99,248.92,391.52z M225.47,391.85c0,5.69,2.64,10,7.15,10c4.2,0,6.99-4.09,6.99-10.08
			c0-4.79-1.99-9.97-6.96-9.97C227.51,381.81,225.47,386.92,225.47,391.85z"/>
		<path class="st9" d="M255.35,400.74c2.53,1.57,6.24,2.82,10.13,2.82c5.8,0,9.21-3,9.21-7.41c0-4.03-2.38-6.41-8.31-8.61
			c-7.17-2.52-11.61-6.25-11.61-12.34c0-6.77,5.68-11.8,14.24-11.8c4.46,0,7.77,1.02,9.69,2.1l-1.58,4.61
			c-1.4-0.82-4.34-2.07-8.29-2.07c-6.03,0-8.31,3.54-8.31,6.51c0,4.04,2.67,6.03,8.73,8.35c7.45,2.89,11.2,6.44,11.2,12.81
			c0,6.67-4.96,12.54-15.37,12.54c-4.25,0-8.88-1.27-11.22-2.84L255.35,400.74z"/>
		<path class="st9" d="M290.11,376.38l6.89,18.45c0.74,2.06,1.51,4.51,2.03,6.37h0.16c0.56-1.84,1.26-4.23,2.01-6.5l6.24-18.33h6.08
			l-8.62,22.24c-4.08,10.73-6.89,16.2-10.79,19.58c-2.83,2.43-5.63,3.39-7.03,3.64l-1.42-4.75c1.44-0.45,3.3-1.34,5.02-2.77
			c1.54-1.24,3.46-3.44,4.79-6.32c0.29-0.6,0.44-1.02,0.44-1.37c0-0.32-0.09-0.77-0.4-1.46l-11.62-28.79H290.11z"/>
		<path class="st9" d="M317.91,401.81c1.73,1.07,4.74,2.22,7.59,2.22c4.18,0,6.12-2.04,6.12-4.65c0-2.73-1.67-4.16-5.86-5.71
			c-5.69-2.04-8.39-5.11-8.37-8.85c0-5.03,4.12-9.15,10.9-9.15c3.21,0,5.97,0.86,7.72,1.92l-1.42,4.13
			c-1.21-0.75-3.52-1.84-6.46-1.84c-3.38,0-5.22,1.93-5.22,4.28c0,2.58,1.85,3.74,5.98,5.32c5.43,2,8.25,4.72,8.27,9.38
			c0,5.53-4.34,9.41-11.79,9.41c-3.45,0-6.64-0.88-8.86-2.17L317.91,401.81z"/>
		<path class="st9" d="M351.4,367.39v8.99h8.23v4.3h-8.23v16.82c0,3.89,1.13,6.09,4.33,6.09c1.49,0,2.57-0.18,3.32-0.41l0.26,4.31
			c-1.11,0.43-2.89,0.78-5.12,0.78c-2.63,0-4.82-0.86-6.19-2.4c-1.58-1.72-2.22-4.48-2.22-8.14v-17.05h-4.88v-4.3h4.88v-7.52
			L351.4,367.39z"/>
		<path class="st9" d="M369.29,393.01c0.11,7.67,5.03,10.84,10.78,10.84c4.1,0,6.61-0.73,8.73-1.6l1,4.03
			c-2,0.91-5.51,1.99-10.51,1.99c-9.68,0-15.5-6.39-15.5-15.75c0-9.46,5.62-16.85,14.83-16.85c10.28,0,12.97,8.93,12.97,14.68
			c0,1.19-0.07,2.04-0.2,2.66H369.29z M386.06,388.93c0.06-3.58-1.48-9.19-7.9-9.19c-5.85,0-8.34,5.24-8.8,9.19H386.06z"/>
		<path class="st9" d="M398.72,384.81c0-3.26-0.11-5.84-0.26-8.43h4.98l0.3,5.03h0.16c1.75-2.97,4.69-5.74,9.95-5.74
			c4.27,0,7.53,2.58,8.88,6.26h0.13c1.01-1.78,2.25-3.12,3.56-4.06c1.91-1.42,3.96-2.19,6.93-2.19c4.21,0,10.4,2.69,10.4,13.54
			v18.38h-5.59v-17.65c0-6.05-2.25-9.63-6.84-9.63c-3.29,0-5.81,2.37-6.82,5.11c-0.27,0.82-0.47,1.84-0.47,2.85v19.32h-5.59v-18.73
			c0-4.97-2.22-8.55-6.55-8.55c-3.57,0-6.19,2.82-7.14,5.67c-0.28,0.83-0.43,1.82-0.43,2.8v18.82h-5.59V384.81z"/>
	</g>
</g>
</svg>
